<svg xmlns="http://www.w3.org/2000/svg" viewBox="0 0 800 500" role="img" aria-labelledby="title desc"><title id="title">Mobile detailing demo thumbnail</title><desc id="desc">Dark glossy vehicle detail scene with neon reflections and sparkle icon.</desc><defs><linearGradient id="bg" x1="0" x2="1" y1="0" y2="1"><stop offset="0" stop-color="#030712"/><stop offset="0.55" stop-color="#101827"/><stop offset="1" stop-color="#020617"/></linearGradient><linearGradient id="car" x1="0" x2="1"><stop offset="0" stop-color="#0f172a"/><stop offset="0.52" stop-color="#1e293b"/><stop offset="1" stop-color="#020617"/></linearGradient><linearGradient id="glow" x1="0" x2="1"><stop offset="0" stop-color="#38bdf8"/><stop offset="1" stop-color="#f05bd8"/></linearGradient><filter id="soft"><feGaussianBlur stdDeviation="18"/></filter></defs><rect width="800" height="500" fill="url(#bg)"/><circle cx="640" cy="95" r="130" fill="#38bdf8" opacity="0.12" filter="url(#soft)"/><circle cx="260" cy="390" r="150" fill="#f05bd8" opacity="0.12" filter="url(#soft)"/><path d="M72 356 C178 282 238 228 366 214 L545 194 C612 188 680 229 724 290 L746 322 C754 338 742 358 718 358 Z" fill="url(#car)" stroke="#475569" stroke-width="4"/><path d="M217 236 C291 178 396 154 515 180 C554 188 594 213 628 249 L438 257 C346 258 278 252 217 236 Z" fill="#0b1220" stroke="#64748b" stroke-width="3"/><path d="M270 229 C330 188 408 175 492 190" fill="none" stroke="#93c5fd" stroke-width="4" opacity="0.5"/><ellipse cx="222" cy="361" rx="58" ry="58" fill="#020617" stroke="#94a3b8" stroke-width="9"/><ellipse cx="605" cy="361" rx="58" ry="58" fill="#020617" stroke="#94a3b8" stroke-width="9"/><circle cx="222" cy="361" r="20" fill="#334155"/><circle cx="605" cy="361" r="20" fill="#334155"/><path d="M102 318 C235 300 359 286 713 309" fill="none" stroke="url(#glow)" stroke-width="8" opacity="0.85"/><path d="M118 400 C290 380 500 378 760 392" fill="none" stroke="#38bdf8" stroke-width="3" opacity="0.32"/><path d="M124 114 L140 148 L176 160 L140 172 L124 206 L108 172 L72 160 L108 148 Z" fill="none" stroke="#f8fafc" stroke-width="8" stroke-linejoin="round"/><path d="M194 84 L204 106 L228 114 L204 122 L194 144 L184 122 L160 114 L184 106 Z" fill="none" stroke="#f05bd8" stroke-width="6" stroke-linejoin="round"/><rect x="0" y="398" width="800" height="102" fill="#020617" opacity="0.58"/><text x="48" y="450" fill="#f8fafc" font-family="Arial, sans-serif" font-size="34" font-weight="800" letter-spacing="4">DETAILING</text></svg>
